#!OML:ASF E:\VariousWalksJay\Project 1\Capture day 1\Session 1\Actor2.ASF
:FULLY-SPECIFIED
:DEGREES
827
root 7.98681 13.329 19.9282 16.6027 23.0949 -10.6763
lowerback 23.1594 -3.02153 6.78955
upperback 6.56391 -2.191 0.820622
thorax -5.88185 -1.05155 -2.37719
lowerneck 2.84461 -3.17058 -2.36143
upperneck -24.0218 -1.25491 15.6944
head -7.63468 -1.78957 5.77312
rclavicle 3.49861e-014 4.37326e-014
rhumerus 23.6302 15.9048 -32.3364
rradius 101.294
rwrist -2.74672
rhand -25.6057 -9.28264
rfingers 7.12502
rthumb 0.926598 -39.2604
lclavicle 3.49861e-014 4.37326e-014
lhumerus 36.756 0.767068 29.0214
lradius 82.5711
lwrist 28.7323
lhand -21.6856 -4.13588
lfingers 7.12502
lthumb 4.71233 25.7917
rfemur -74.7052 1.49873 31.7505
rtibia 88.4552
rfoot -32.5138 -10.2499
rtoes -20.5875
lfemur -79.2995 20.5632 -17.3243
ltibia 92.6856
lfoot -31.9704 7.72536
ltoes -15.4899
828
root 7.99335 13.3334 19.9269 16.657 23.0736 -10.6628
lowerback 23.1552 -3.01465 6.80539
upperback 6.55388 -2.17858 0.823915
thorax -5.88986 -1.04618 -2.38602
lowerneck 2.83538 -3.18512 -2.36149
upperneck -24.0094 -1.27444 15.7098
head -7.6265 -1.7998 5.77866
rclavicle 2.38542e-015 -1.27222e-014
rhumerus 23.579 15.9234 -32.3585
rradius 101.304
rwrist -2.7467
rhand -25.5944 -9.2704
rfingers 7.12502
rthumb 0.937529 -39.2481
lclavicle 2.38542e-015 -1.27222e-014
lhumerus 36.7468 0.711789 29.0326
lradius 82.5793
lwrist 28.7316
lhand -21.6675 -4.13149
lfingers 7.12502
lthumb 4.72981 25.7957
rfemur -74.732 1.48604 31.7242
rtibia 88.4106
rfoot -32.5053 -10.2824
rtoes -20.6478
lfemur -79.3089 20.5288 -17.3639
ltibia 92.6405
lfoot -31.973 7.7483
ltoes -15.4485
829
root 7.99988 13.3379 19.9254 16.7068 23.0543 -10.6564
lowerback 23.1554 -3.00827 6.82702
upperback 6.54545 -2.16485 0.830495
thorax -5.8983 -1.04018 -2.39484
lowerneck 2.81158 -3.20224 -2.35396
upperneck -23.9888 -1.29992 15.7166
head -7.6126 -1.81203 5.77935
rclavicle 5.08889e-014 -6.36111e-015
rhumerus 23.5305 15.9383 -32.3762
rradius 101.319
rwrist -2.75458
rhand -25.5827 -9.26284
rfingers 7.12502
rthumb 0.948786 -39.2405
lclavicle 5.08889e-014 -6.36111e-015
lhumerus 36.7405 0.662556 29.0446
lradius 82.5858
lwrist 28.7368
lhand -21.6532 -4.13156
lfingers 7.12502
lthumb 4.74369 25.7953
rfemur -74.7548 1.47707 31.7027
rtibia 88.3639
rfoot -32.4984 -10.3121
rtoes -20.7038
lfemur -79.3172 20.4934 -17.3942
ltibia 92.5956
lfoot -31.9722 7.77507
ltoes -15.4232
830
root 8.00633 13.3422 19.9237 16.7537 23.0369 -10.6546
lowerback 23.1596 -3.00259 6.85139
upperback 6.53837 -2.15086 0.839953
thorax -5.90717 -1.03403 -2.40206
lowerneck 2.7906 -3.21462 -2.35077
upperneck -23.9776 -1.31809 15.722
head -7.60305 -1.82061 5.78052
rclavicle 4.21423e-014 -2.70347e-014
rhumerus 23.4873 15.9505 -32.3907
rradius 101.339
rwrist -2.7708
rhand -25.5643 -9.26108
rfingers 7.12502
rthumb 0.966528 -39.2386
lclavicle 4.21423e-014 -2.70347e-014
lhumerus 36.7354 0.619724 29.0568
lradius 82.5897
lwrist 28.7412
lhand -21.6426 -4.13975
lfingers 7.12502
lthumb 4.75388 25.7869
rfemur -74.7762 1.47265 31.6829
rtibia 88.3166
rfoot -32.4914 -10.3368
rtoes -20.751
lfemur -79.3261 20.4577 -17.4183
ltibia 92.5517
lfoot -31.9702 7.80133
ltoes -15.4053
831
root 8.0126 13.3464 19.9222 16.7956 23.0186 -10.6586
lowerback 23.1697 -2.99634 6.87787
upperback 6.53249 -2.13496 0.851745
thorax -5.91755 -1.02698 -2.40835
lowerneck 2.77377 -3.22273 -2.35213
upperneck -23.9789 -1.32888 15.7278
head -7.59906 -1.82579 5.78298
rclavicle 1.59028e-015 2.38542e-015
rhumerus 23.4499 15.9614 -32.4004
rradius 101.361
rwrist -2.79427
rhand -25.5354 -9.26271
rfingers 7.12502
rthumb 0.994442 -39.2401
lclavicle 1.59028e-015 2.38542e-015
lhumerus 36.731 0.581203 29.0689
lradius 82.5915
lwrist 28.7387
lhand -21.6328 -4.15906
lfingers 7.12502
lthumb 4.76335 25.7674
rfemur -74.7935 1.4766 31.6654
rtibia 88.2692
rfoot -32.4859 -10.3559
rtoes -20.7855
lfemur -79.3333 20.426 -17.4343
ltibia 92.5095
lfoot -31.9685 7.82455
ltoes -15.391
832
root 8.01865 13.3502 19.9206 16.8348 22.9993 -10.666
lowerback 23.1829 -2.98957 6.90339
upperback 6.52733 -2.11821 0.865293
thorax -5.92851 -1.01952 -2.41236
lowerneck 2.77155 -3.22512 -2.3577
upperneck -24.0003 -1.32935 15.7326
head -7.6055 -1.82672 5.78681
rclavicle -5.00937e-014 -7.15625e-015
rhumerus 23.421 15.9738 -32.4052
rradius 101.384
rwrist -2.82054
rhand -25.4975 -9.26509
rfingers 7.12502
rthumb 1.03106 -39.2423
lclavicle -5.00937e-014 -7.15625e-015
lhumerus 36.7271 0.54672 29.079
lradius 82.5906
lwrist 28.7283
lhand -21.6207 -4.18773
lfingers 7.12502
lthumb 4.77501 25.7385
rfemur -74.8098 1.48841 31.6477
rtibia 88.2234
rfoot -32.4798 -10.3659
rtoes -20.8012
lfemur -79.341 20.3982 -17.4464
ltibia 92.4699
lfoot -31.9664 7.84557
ltoes -15.381
833
root 8.0245 13.3537 19.9191 16.8752 22.9764 -10.6723
lowerback 23.1937 -2.98062 6.92385
upperback 6.52265 -2.10006 0.878831
thorax -5.93749 -1.01131 -2.41398
lowerneck 2.78763 -3.22101 -2.37006
upperneck -24.0433 -1.31764 15.7399
head -7.62362 -1.82275 5.79373
rclavicle -7.95139e-015 -4.21423e-014
rhumerus 23.3994 15.9887 -32.4056
rradius 101.406
rwrist -2.84514
rhand -25.4552 -9.26894
rfingers 7.12502
rthumb 1.07194 -39.246
lclavicle -7.95139e-015 -4.21423e-014
lhumerus 36.7241 0.514732 29.0899
lradius 82.5875
lwrist 28.7073
lhand -21.603 -4.22624
lfingers 7.12502
lthumb 4.79213 25.6996
rfemur -74.8288 1.50884 31.625
rtibia 88.1807
rfoot -32.4721 -10.3671
rtoes -20.8031
lfemur -79.3521 20.3754 -17.4608
ltibia 92.4334
lfoot -31.9645 7.86643
ltoes -15.3746
834
root 8.03031 13.3568 19.9176 16.9151 22.9526 -10.6786
lowerback 23.1999 -2.97122 6.9427
upperback 6.52 -2.08216 0.892401
thorax -5.94184 -1.00305 -2.41476
lowerneck 2.8158 -3.21292 -2.38485
upperneck -24.1019 -1.29818 15.748
head -7.64994 -1.81584 5.80211
rclavicle 9.54166e-015 -1.59028e-015
rhumerus 23.3871 16.0056 -32.4019
rradius 101.424
rwrist -2.86453
rhand -25.4089 -9.27081
rfingers 7.12502
rthumb 1.11666 -39.2476
lclavicle 9.54166e-015 -1.59028e-015
lhumerus 36.7222 0.486793 29.1034
lradius 82.5827
lwrist 28.6776
lhand -21.5782 -4.26986
lfingers 7.12502
lthumb 4.81603 25.6554
rfemur -74.8483 1.53278 31.5997
rtibia 88.1417
rfoot -32.4643 -10.3598
rtoes -20.7994
lfemur -79.3644 20.3557 -17.4758
ltibia 92.4007
lfoot -31.9638 7.88541
ltoes -15.3693
835
root 8.03617 13.3596 19.9163 16.9567 22.9271 -10.6808
lowerback 23.1997 -2.96151 6.95706
upperback 6.51777 -2.06561 0.904459
thorax -5.94257 -0.995325 -2.41444
lowerneck 2.84742 -3.20329 -2.39794
upperneck -24.1607 -1.27649 15.7547
head -7.67733 -1.80802 5.80971
rclavicle -1.03368e-014 3.65764e-014
rhumerus 23.381 16.0286 -32.3965
rradius 101.438
rwrist -2.87554
rhand -25.3653 -9.26607
rfingers 7.12502
rthumb 1.15874 -39.2427
lclavicle -1.03368e-014 3.65764e-014
lhumerus 36.7211 0.460146 29.1187
lradius 82.577
lwrist 28.6459
lhand -21.5512 -4.31164
lfingers 7.12502
lthumb 4.84217 25.613
rfemur -74.8699 1.55738 31.5684
rtibia 88.1072
rfoot -32.4567 -10.3426
rtoes -20.7902
lfemur -79.3783 20.3378 -17.4964
ltibia 92.3718
lfoot -31.9654 7.9027
ltoes -15.3601
836
root 8.04206 13.3621 19.9152 17.0013 22.9008 -10.6763
lowerback 23.1914 -2.95135 6.96514
upperback 6.51605 -2.05084 0.914463
thorax -5.93868 -0.988308 -2.41251
lowerneck 2.87403 -3.19403 -2.40715
upperneck -24.2097 -1.25646 15.7601
head -7.70045 -1.8007 5.81559
rclavicle -1.19271e-014 -3.65764e-014
rhumerus 23.3791 16.0579 -32.3907
rradius 101.447
rwrist -2.87806
rhand -25.3296 -9.25636
rfingers 7.12502
rthumb 1.19323 -39.2328
lclavicle -1.19271e-014 -3.65764e-014
lhumerus 36.7223 0.434744 29.1395
lradius 82.5706
lwrist 28.6146
lhand -21.5227 -4.34791
lfingers 7.12502
lthumb 4.86964 25.5761
rfemur -74.8942 1.58051 31.5292
rtibia 88.0775
rfoot -32.4488 -10.3183
rtoes -20.7823
lfemur -79.3941 20.3201 -17.5251
ltibia 92.347
lfoot -31.9695 7.91482
ltoes -15.3398
837
root 8.04804 13.3643 19.9142 17.0467 22.8734 -10.6664
lowerback 23.1751 -2.94089 6.9678
upperback 6.51602 -2.03785 0.922561
thorax -5.92903 -0.981935 -2.40932
lowerneck 2.88657 -3.1881 -2.40751
upperneck -24.2394 -1.24394 15.7604
head -7.71404 -1.79621 5.81711
rclavicle -3.89618e-014 -1.59028e-014
rhumerus 23.382 16.0921 -32.3867
rradius 101.449
rwrist -2.87578
rhand -25.3005 -9.23969
rfingers 7.12502
rthumb 1.2213 -39.2159
lclavicle -3.89618e-014 -1.59028e-014
lhumerus 36.7271 0.410093 29.1634
lradius 82.5635
lwrist 28.5885
lhand -21.4994 -4.3759
lfingers 7.12502
lthumb 4.89215 25.5476
rfemur -74.9191 1.60069 31.4845
rtibia 88.0523
rfoot -32.4417 -10.2876
rtoes -20.7718
lfemur -79.4097 20.3034 -17.5603
ltibia 92.326
lfoot -31.9749 7.92607
ltoes -15.3189
838
root 8.05407 13.3664 19.9135 17.0887 22.8479 -10.6559
lowerback 23.1549 -2.93217 6.9701
upperback 6.51677 -2.02761 0.929812
thorax -5.91675 -0.976792 -2.40618
lowerneck 2.89137 -3.18219 -2.40692
upperneck -24.2516 -1.23311 15.763
head -7.72015 -1.79194 5.81813
rclavicle 0 -7.95139e-015
rhumerus 23.3884 16.1343 -32.3863
rradius 101.445
rwrist -2.87385
rhand -25.2794 -9.22356
rfingers 7.12502
rthumb 1.24176 -39.1997
lclavicle 0 -7.95139e-015
lhumerus 36.7347 0.384452 29.1895
lradius 82.5547
lwrist 28.5643
lhand -21.4863 -4.39777
lfingers 7.12502
lthumb 4.90475 25.5255
rfemur -74.9408 1.61605 31.4405
rtibia 88.0305
rfoot -32.4352 -10.2533
rtoes -20.7572
lfemur -79.4226 20.2872 -17.5955
ltibia 92.3086
lfoot -31.9825 7.93284
ltoes -15.2925
839
root 8.06017 13.3683 19.913 17.1237 22.8244 -10.6477
lowerback 23.1333 -2.92568 6.97459
upperback 6.51864 -2.01996 0.936261
thorax -5.90288 -0.972825 -2.40448
lowerneck 2.88224 -3.17995 -2.39509
upperneck -24.241 -1.23068 15.7597
head -7.7155 -1.79095 5.8139
rclavicle 2.06736e-014 -1.82882e-014
rhumerus 23.398 16.1844 -32.3911
rradius 101.433
rwrist -2.87807
rhand -25.2609 -9.20769
rfingers 7.12502
rthumb 1.2596 -39.1837
lclavicle 2.06736e-014 -1.82882e-014
lhumerus 36.7461 0.355044 29.2105
lradius 82.5441
lwrist 28.5441
lhand -21.4879 -4.41433
lfingers 7.12502
lthumb 4.90329 25.5089
rfemur -74.9556 1.62684 31.4007
rtibia 88.0114
rfoot -32.4299 -10.2173
rtoes -20.7343
lfemur -79.4296 20.2728 -17.627
ltibia 92.2945
lfoot -31.991 7.93659
ltoes -15.2695
